<svg width="160" height="160" viewBox="0 0 160 160" fill="none" xmlns="http://www.w3.org/2000/svg" role="img" aria-label="Xikmatullo Admin avatari">
  <rect width="160" height="160" rx="80" fill="#D7F3EF"/>
  <path d="M34 126C41.9 105.9 58.1 94 80 94C101.9 94 118.1 105.9 126 126C113.2 138.8 97.8 145 80 145C62.2 145 46.8 138.8 34 126Z" fill="#0E8F8A"/>
  <path d="M80 88C95.5 88 108 75.5 108 60C108 44.5 95.5 32 80 32C64.5 32 52 44.5 52 60C52 75.5 64.5 88 80 88Z" fill="#F4B98C"/>
  <path d="M49 60C49 41.8 62.3 28 80.8 28C98.6 28 111 40.2 111 57.6C100.6 57.2 92.9 53.8 87.9 47.2C78.1 57.6 65 62 49 60Z" fill="#253445"/>
  <path d="M62 65C66.3 68.7 71.9 70.5 78.8 70.5C87.7 70.5 94.9 67.5 100.4 61.5" stroke="#B86848" stroke-width="3" stroke-linecap="round"/>
</svg>
