<svg width="20" height="20" viewBox="0 0 20 20" fill="none" xmlns="http://www.w3.org/2000/svg">
    <path fill-rule="evenodd" clip-rule="evenodd" d="M7.49935 4.16667C6.11864 4.16667 4.99935 5.28595 4.99935 6.66667C4.99935 8.04738 6.11864 9.16667 7.49935 9.16667C8.88006 9.16667 9.99935 8.04738 9.99935 6.66667C9.99935 5.28595 8.88006 4.16667 7.49935 4.16667ZM3.33268 6.66667C3.33268 4.36548 5.19816 2.5 7.49935 2.5C9.80054 2.5 11.666 4.36548 11.666 6.66667C11.666 8.96785 9.80054 10.8333 7.49935 10.8333C5.19816 10.8333 3.33268 8.96785 3.33268 6.66667ZM15.8327 7.5C16.2929 7.5 16.666 7.8731 16.666 8.33333V10H18.3327C18.7929 10 19.166 10.3731 19.166 10.8333C19.166 11.2936 18.7929 11.6667 18.3327 11.6667H16.666V13.3333C16.666 13.7936 16.2929 14.1667 15.8327 14.1667C15.3724 14.1667 14.9993 13.7936 14.9993 13.3333V11.6667H13.3327C12.8724 11.6667 12.4993 11.2936 12.4993 10.8333C12.4993 10.3731 12.8724 10 13.3327 10H14.9993V8.33333C14.9993 7.8731 15.3724 7.5 15.8327 7.5ZM3.50156 12.7829C4.5612 12.0765 5.97706 11.6667 7.49935 11.6667C9.02163 11.6667 10.4375 12.0765 11.4971 12.7829C12.5509 13.4855 13.3327 14.5475 13.3327 15.8333C13.3327 16.2936 12.9596 16.6667 12.4993 16.6667C12.0391 16.6667 11.666 16.2936 11.666 15.8333C11.666 15.2782 11.3285 14.6736 10.5726 14.1697C9.82262 13.6697 8.73849 13.3333 7.49935 13.3333C6.26021 13.3333 5.17608 13.6697 4.42606 14.1697C3.67023 14.6736 3.33268 15.2782 3.33268 15.8333C3.33268 16.2936 2.95959 16.6667 2.49935 16.6667C2.03911 16.6667 1.66602 16.2936 1.66602 15.8333C1.66602 14.5475 2.44776 13.4855 3.50156 12.7829Z" fill="white"/>
</svg>
