<svg width="16" height="16" viewBox="0 0 16 16" fill="none" xmlns="http://www.w3.org/2000/svg">
<path fill-rule="evenodd" clip-rule="evenodd" d="M7.70848 3.36238C6.10808 2.38939 4.15079 2.23047 2.4179 2.93283C2.1655 3.03513 2 3.28283 2 3.55828V10.309C2 10.7611 2.45072 11.0703 2.86507 10.9024C4.28412 10.3273 5.88694 10.4574 7.19751 11.2542L7.84624 11.6486C7.89571 11.6786 7.94863 11.6918 8 11.6909C8.05137 11.6918 8.10429 11.6786 8.15377 11.6486L8.8025 11.2542C10.1131 10.4574 11.7159 10.3273 13.1349 10.9024C13.5493 11.0703 14 10.7611 14 10.309V3.55828C14 3.28283 13.8345 3.03513 13.5821 2.93283C11.8492 2.23047 9.89192 2.38939 8.29152 3.36238L8 3.53961L7.70848 3.36238ZM8.42857 4.74575C8.42857 4.50592 8.23669 4.31149 8 4.31149C7.76331 4.31149 7.57143 4.50592 7.57143 4.74575V10.2464C7.57143 10.4862 7.76331 10.6807 8 10.6807C8.23669 10.6807 8.42857 10.4862 8.42857 10.2464V4.74575Z" fill="#098909"/>
<path d="M2.69991 12.0079C3.8564 11.3243 5.28646 11.3243 6.44295 12.0079L7.06424 12.3751C7.64248 12.7169 8.35752 12.7169 8.93576 12.3751L9.55705 12.0079C10.7135 11.3243 12.1436 11.3243 13.3001 12.0079L13.3588 12.0426C13.5633 12.1635 13.6323 12.4294 13.513 12.6365C13.3938 12.8437 13.1314 12.9137 12.9269 12.7928L12.8682 12.7581C11.9786 12.2323 10.8785 12.2323 9.98894 12.7581L9.36765 13.1253C8.52252 13.6249 7.47748 13.6249 6.63235 13.1253L6.01106 12.7581C5.12145 12.2323 4.0214 12.2323 3.1318 12.7581L3.07309 12.7928C2.86864 12.9137 2.60621 12.8437 2.48695 12.6365C2.36769 12.4294 2.43675 12.1635 2.6412 12.0426L2.69991 12.0079Z" fill="#098909"/>
</svg>
