<svg width="48" height="48" viewBox="0 0 48 48" fill="none" xmlns="http://www.w3.org/2000/svg">
<path d="M34.9486 8.6377L32.9767 33.8758C32.9767 33.8758 13.0563 37.8526 12.6621 37.7532C12.2679 37.6548 9.70312 11.549 9.70312 11.549C9.70312 11.549 31.103 8.83447 34.9486 8.6377Z" fill="url(#paint0_linear_16267_35059)"/>
<path d="M41.998 12.3379C41.998 12.3379 41.9135 13.6858 41.7759 15.7814V15.7853C41.7759 15.7932 41.7719 15.808 41.7719 15.8355C41.2932 23.0433 40.1686 38.919 39.4834 39.5319C38.7215 40.2098 21.7306 43.0827 16.1666 43.8255C16.1479 43.8294 16.1322 43.8334 16.1135 43.8334C15.2219 43.9524 14.6321 44.0134 14.4679 43.9977C13.2853 43.8983 9.01105 41.7997 8.61685 40.9526C8.22265 40.1026 7.11279 11.5498 7.11279 11.5498C7.11279 11.5498 11.969 15.5482 15.2258 15.4489C18.4787 15.3495 41.998 12.3389 41.998 12.3389V12.3379Z" fill="url(#paint1_linear_16267_35059)"/>
<path d="M7.11382 11.5491C6.92409 10.3439 33.075 7.8478 33.6668 7.94618C34.2586 8.04457 34.9487 8.63686 34.9487 8.63686C34.9487 8.63686 11.971 11.4005 11.2809 12.1404C10.5908 12.8803 13.944 14.2626 16.1627 14.4594C18.3815 14.6571 39.4363 11.3996 40.028 11.4487C40.6198 11.4979 42 12.3372 42 12.3372C42 12.3372 16.7545 16.3907 14.5849 16.3386C12.4154 16.2854 7.21311 12.1758 7.1148 11.5481L7.11382 11.5491Z" fill="url(#paint2_linear_16267_35059)"/>
<path d="M14.4679 43.9977C14.4679 43.9977 14.4601 43.9977 14.4561 43.9937C14.3873 43.9711 13.9626 43.8334 13.3502 43.5914C12.0909 43.0935 10.0324 42.1706 8.61685 40.9526L8.52149 39.0646L7.11279 11.5488C7.11279 11.5488 11.4028 15.6506 14.5829 16.3403C14.5829 16.3403 13.825 40.4007 14.4679 43.9967V43.9977Z" fill="url(#paint3_linear_16267_35059)"/>
<path d="M37.1293 11.8195C37.1293 11.8195 35.2989 11.6188 33.3712 10.3438C33.3712 10.3438 17.6071 11.0049 11.7324 13.0169C11.7324 13.0169 13.5127 14.5468 16.1384 14.658C18.7641 14.7692 37.1303 11.8195 37.1303 11.8195H37.1293Z" fill="#EEEFF7"/>
<path d="M7.25953 15.0165C7.25953 15.0165 6.24208 14.7657 6.0494 14.9487C5.85673 15.1317 6.27255 20.4642 6.52519 21.1313C6.77784 21.7983 13.0752 25.4435 14.1221 25.5892C15.1691 25.7348 18.0533 25.0589 18.0533 25.0589C18.0533 25.0589 18.595 19.2836 18.4141 19.1281C18.2332 18.9727 17.3672 18.6342 17.3672 18.6342C17.3672 18.6342 15.2271 19.0425 14.3964 18.9235C13.5657 18.8044 7.25953 15.0165 7.25953 15.0165Z" fill="url(#paint4_linear_16267_35059)"/>
<path d="M6.04932 14.9489C6.04932 14.9489 13.4212 19.3772 14.0719 19.5593C14.7227 19.7413 18.415 19.1293 18.415 19.1293C18.415 19.1293 17.5077 18.6236 17.3681 18.6354C17.2285 18.6472 14.6618 18.9985 14.3187 18.906C13.9756 18.8145 7.26042 15.0168 7.26042 15.0168L7.26927 14.7324C7.26927 14.7324 6.08667 14.8092 6.0503 14.9499L6.04932 14.9489Z" fill="#6B6587"/>
<path d="M14.0722 19.5598C14.0722 19.5598 13.4018 24.3247 14.1224 25.5909C14.1224 25.5909 17.8392 25.1748 17.9946 25.0655C18.1499 24.9573 18.547 19.7054 18.4143 19.1299L14.0712 19.5598H14.0722Z" fill="url(#paint5_linear_16267_35059)"/>
<path d="M8.01705 31.919C8.01705 31.919 7.03204 31.7026 6.84526 31.8925C6.65848 32.0814 7.06153 37.4001 7.30631 38.0593C7.55108 38.7185 13.3677 42.0627 14.3822 42.1729C15.3958 42.2831 17.9772 41.6367 17.9772 41.6367C17.9772 41.6367 18.5012 35.8427 18.3272 35.6941C18.1522 35.5446 17.3137 35.2356 17.3137 35.2356C17.3137 35.2356 15.7329 35.6764 14.9288 35.5849C14.1247 35.4944 8.01803 31.919 8.01803 31.919H8.01705Z" fill="url(#paint6_linear_16267_35059)"/>
<path d="M6.84521 31.8925C6.84521 31.8925 13.9841 36.072 14.6132 36.2314C15.2424 36.3908 18.3272 35.6942 18.3272 35.6942C18.3272 35.6942 17.4483 35.219 17.3136 35.2357C17.179 35.2524 15.1844 35.6499 14.8521 35.5702C14.5198 35.4895 8.01798 31.9201 8.01798 31.9201L8.02683 31.6348C8.02683 31.6348 6.88159 31.7518 6.84718 31.8925H6.84521Z" fill="#6B6587"/>
<path d="M14.6133 36.2305C14.6133 36.2305 13.6844 40.9315 14.3813 42.1721C14.3813 42.1721 17.7689 41.7569 17.9193 41.6428C18.0697 41.5287 18.4541 36.264 18.3263 35.6934L14.6124 36.2305H14.6133Z" fill="url(#paint7_linear_16267_35059)"/>
<path d="M17.9019 13.0106C17.9019 13.0106 32.7399 11.5112 33.9481 11.0753C33.9481 11.0753 22.011 10.2961 17.9019 13.0106Z" fill="url(#paint8_linear_16267_35059)"/>
<path d="M22.9852 11.2615C22.9852 11.2615 21.8586 5.18323 22.5881 4.88708C23.3165 4.59094 30.5841 3.91207 30.8574 4.00947C30.8957 4.02325 32.0892 4.51715 32.1029 4.64013C32.2258 5.79519 30.6824 10.5128 30.6824 10.5128L23.6596 12.1421L22.9862 11.2615H22.9852Z" fill="url(#paint9_linear_16267_35059)"/>
<path d="M23.6588 12.1427C23.6588 12.1427 22.717 5.92369 23.4464 5.62755C24.1759 5.3314 31.7384 4.44297 32.1031 4.64073C32.4678 4.83849 31.5408 11.2533 31.5408 11.2533L23.6598 12.1427H23.6588Z" fill="url(#paint10_linear_16267_35059)"/>
<path d="M22.5879 4.88725L23.4461 5.62711C23.4461 5.62711 30.0983 4.6403 32.1028 4.6403C32.1028 4.6403 31.1531 4.03817 30.7363 4.01062C30.3195 3.98406 24.6769 4.24478 22.5879 4.88626V4.88725Z" fill="#70D604"/>
<path d="M22.5879 4.88752L23.2819 5.85958C23.2819 5.85958 27.7154 4.9013 31.7774 4.64746C31.7774 4.64746 27.8629 4.66615 23.6574 5.40996C23.6574 5.40996 23.1492 5.58017 22.5879 4.88752Z" fill="#8BFF04"/>
<g style="mix-blend-mode:multiply">
<path d="M41.7728 15.8359C41.294 23.0437 40.1694 38.9194 39.4843 39.5323C38.7224 40.2102 21.7315 43.0831 16.1675 43.8259C17.2734 43.6419 35.0075 40.6549 37.5978 37.7555C40.1881 34.86 41.6814 16.9546 41.7728 15.8359Z" fill="#D888FF"/>
</g>
<g style="mix-blend-mode:multiply" opacity="0.3">
<path d="M20.4019 16.4328C17.9472 17.7049 20.5808 39.225 30.0327 39.3794C39.4847 39.5329 42.0681 16.2744 39.7973 14.6628C37.5265 13.0512 20.4019 16.4337 20.4019 16.4337V16.4328Z" fill="#E37E87"/>
</g>
<path d="M8.7959 13.0105C8.7959 13.0105 12.2729 16.1117 14.5841 16.3389L38.4012 12.9102C38.4012 12.9102 20.6298 15.4052 16.6416 15.3324C12.6534 15.2596 8.79492 13.0105 8.79492 13.0105H8.7959Z" fill="#FF7141"/>
<path d="M8.38184 16.3398C8.38184 16.3398 12.428 18.5968 14.3174 18.9067C16.2069 19.2167 18.1464 19.1301 18.1464 19.1301C18.1464 19.1301 14.8001 19.6309 14.0717 19.56C13.3433 19.4892 8.38184 16.3398 8.38184 16.3398Z" fill="#86819D"/>
<path d="M8.7959 33.0264C8.7959 33.0264 13.6718 36.0478 14.6135 36.2318C15.5553 36.4158 18.3275 35.6946 18.3275 35.6946C18.3275 35.6946 15.8817 35.9976 14.6666 35.8343C13.4526 35.671 8.7959 33.0264 8.7959 33.0264Z" fill="#86819D"/>
<g style="mix-blend-mode:soft-light" opacity="0.5">
<path d="M15.506 36.838C14.4817 36.9699 14.2005 41.5547 15.9169 41.7967C17.6333 42.0388 18.3096 37.0555 17.7542 36.6442C17.1988 36.233 15.506 36.838 15.506 36.838Z" fill="#D1A6BA"/>
</g>
<g style="mix-blend-mode:soft-light" opacity="0.5">
<path d="M14.8299 19.9786C13.9874 20.1252 13.9235 24.1148 14.8299 24.8045C15.7362 25.4942 17.6748 24.2604 17.9019 22.392C18.1289 20.5237 17.3317 19.5437 14.8299 19.9796V19.9786Z" fill="#D1A6BA"/>
</g>
<g style="mix-blend-mode:multiply">
<path d="M7.65257 22.0767C7.65257 22.0767 7.76955 30.0598 9.7032 32.1072C11.6368 34.1556 14.1741 35.2418 14.1741 35.2418C14.1741 35.2418 9.23232 33.3705 7.99467 31.814L7.54443 22.001L7.65355 22.0757L7.65257 22.0767Z" fill="#D888FF"/>
</g>
<g style="mix-blend-mode:multiply">
<path d="M13.3507 43.5922C12.0914 43.0944 10.0329 42.1715 8.61733 40.9535L8.52197 39.0654C8.52197 39.0654 10.9983 42.3742 13.3517 43.5922H13.3507Z" fill="#D888FF"/>
</g>
<path d="M11.2811 12.1406C11.2811 12.1406 11.1562 11.815 12.4617 11.4382C13.7672 11.0613 21.0427 10.4287 21.0427 10.4287C21.0427 10.4287 12.2523 11.754 11.2811 12.1406Z" fill="#FF7141"/>
<g style="mix-blend-mode:multiply">
<path d="M20.3054 22.1373C19.4541 22.7325 19.2664 37.5397 19.9643 38.0523C20.6623 38.5658 35.0835 35.9989 35.7785 35.1922C36.4745 34.3854 38.2755 20.3801 37.5342 19.9403C36.793 19.5005 21.3593 21.3994 20.3054 22.1363V22.1373Z" fill="#D888FF"/>
</g>
<g style="mix-blend-mode:multiply" opacity="0.3">
<path d="M24.4302 6.29902C23.3066 7.19532 23.8413 10.7038 26.1407 11.2862C28.44 11.8687 31.4698 7.93224 31.108 6.29902C30.7453 4.6658 25.1134 5.75494 24.4302 6.29902Z" fill="#93C766"/>
</g>
<path d="M20.7918 21.5045C19.9404 22.0997 19.7527 36.9069 20.4506 37.4195C21.1486 37.933 35.5698 35.3661 36.2649 34.5594C36.9599 33.7526 38.7618 19.7473 38.0206 19.3075C37.2794 18.8677 21.8456 20.7666 20.7918 21.5035V21.5045Z" fill="url(#paint11_linear_16267_35059)"/>
<path d="M21.2883 22.0191C20.437 22.6143 20.2493 37.4215 20.9472 37.9341C21.6452 38.4477 36.0664 35.8808 36.7614 35.074C37.4574 34.2672 39.2584 20.2619 38.5171 19.8221C37.7759 19.3823 22.3422 21.2812 21.2883 22.0181V22.0191Z" fill="url(#paint12_linear_16267_35059)"/>
<path d="M20.792 21.5033L21.2894 22.0189C21.2894 22.0189 35.2525 19.1312 38.6136 20C38.6136 20 38.3698 19.2935 37.8792 19.268C37.3887 19.2424 25.7298 19.5612 20.792 21.5033Z" fill="#FF7B32"/>
<path d="M24.8263 20.6429C24.2473 20.8122 25.945 21.0168 28.7556 20.6429C31.5651 20.2691 32.4636 19.6738 32.4636 19.6738C32.4636 19.6738 27.9947 19.7181 24.8273 20.6429H24.8263Z" fill="#FFA132"/>
<path d="M23.1689 15.2513C23.1689 15.2513 29.9647 14.1671 31.7578 13.9516C33.5509 13.7362 35.2771 13.3613 35.2771 13.3613C35.2771 13.3613 27.3036 13.6201 23.1689 15.2513Z" fill="#FFA132"/>
<g style="mix-blend-mode:multiply" opacity="0.3">
<path d="M31.0922 23.4377C29.8388 24.4698 29.1978 25.983 29.6343 27.6192C30.3205 30.188 33.4495 30.7232 35.393 29.1884C36.8813 28.0127 37.7159 25.8374 36.3229 24.2711C35.3183 23.1416 33.4741 22.5454 31.0922 23.4367V23.4377Z" fill="#C77F66"/>
</g>
<g style="mix-blend-mode:multiply" opacity="0.3">
<path d="M34.7088 30.6783C32.6788 30.4658 31.9513 33.382 34.2153 33.0908C35.8658 32.8783 36.2394 31.2982 34.8513 30.4658L34.7097 30.6783H34.7088Z" fill="#C77F66"/>
</g>
<g style="mix-blend-mode:multiply" opacity="0.3">
<path d="M37.4752 15.2732C36.8962 15.532 35.8493 16.4991 36.4804 17.1927C36.9031 17.6571 37.7869 17.4072 38.1231 16.9871C38.7168 16.2463 38.1821 14.6091 37.1204 15.4149L37.4752 15.2732Z" fill="#C77F66"/>
</g>
<defs>
<linearGradient id="paint0_linear_16267_35059" x1="22.3254" y1="37.7552" x2="22.3254" y2="8.6377" gradientUnits="userSpaceOnUse">
<stop stop-color="#B00027"/>
<stop offset="0.04" stop-color="#B00224"/>
<stop offset="0.36" stop-color="#B01410"/>
<stop offset="0.68" stop-color="#B01E04"/>
<stop offset="0.99" stop-color="#B02200"/>
</linearGradient>
<linearGradient id="paint1_linear_16267_35059" x1="24.5559" y1="43.9996" x2="24.5559" y2="11.5488" gradientUnits="userSpaceOnUse">
<stop stop-color="#C90027"/>
<stop offset="0.17" stop-color="#CF0F22"/>
<stop offset="0.44" stop-color="#D7231C"/>
<stop offset="0.72" stop-color="#DC2F19"/>
<stop offset="1" stop-color="#DE3418"/>
</linearGradient>
<linearGradient id="paint2_linear_16267_35059" x1="7.11284" y1="12.1424" x2="42" y2="12.1424" gradientUnits="userSpaceOnUse">
<stop stop-color="#FF4141"/>
<stop offset="1" stop-color="#FF6D18"/>
</linearGradient>
<linearGradient id="paint3_linear_16267_35059" x1="10.8474" y1="43.9977" x2="10.8474" y2="11.5488" gradientUnits="userSpaceOnUse">
<stop stop-color="#B00027"/>
<stop offset="0.04" stop-color="#B00224"/>
<stop offset="0.36" stop-color="#B01410"/>
<stop offset="0.68" stop-color="#B01E04"/>
<stop offset="0.99" stop-color="#B02200"/>
</linearGradient>
<linearGradient id="paint4_linear_16267_35059" x1="5.01655" y1="19.9725" x2="17.4984" y2="20.6719" gradientUnits="userSpaceOnUse">
<stop stop-color="#1F1649"/>
<stop offset="1" stop-color="#38294B"/>
</linearGradient>
<linearGradient id="paint5_linear_16267_35059" x1="18.5116" y1="45.2062" x2="15.2681" y2="13.3925" gradientUnits="userSpaceOnUse">
<stop stop-color="#352D5B"/>
<stop offset="0.12" stop-color="#39315D"/>
<stop offset="1" stop-color="#5B4F6B"/>
</linearGradient>
<linearGradient id="paint6_linear_16267_35059" x1="6.08944" y1="36.9056" x2="17.7329" y2="37.1534" gradientUnits="userSpaceOnUse">
<stop stop-color="#1F1649"/>
<stop offset="1" stop-color="#38294B"/>
</linearGradient>
<linearGradient id="paint7_linear_16267_35059" x1="16.9048" y1="44.9938" x2="13.7036" y2="13.5914" gradientUnits="userSpaceOnUse">
<stop stop-color="#352D5B"/>
<stop offset="0.12" stop-color="#39315D"/>
<stop offset="1" stop-color="#5B4F6B"/>
</linearGradient>
<linearGradient id="paint8_linear_16267_35059" x1="25.9245" y1="13.0106" x2="25.9245" y2="10.972" gradientUnits="userSpaceOnUse">
<stop stop-color="#9198CE"/>
<stop offset="0.45" stop-color="#99A2C8"/>
<stop offset="1" stop-color="#9FA9C5"/>
</linearGradient>
<linearGradient id="paint9_linear_16267_35059" x1="22.3423" y1="8.07087" x2="32.1098" y2="8.07087" gradientUnits="userSpaceOnUse">
<stop stop-color="#0B8000"/>
<stop offset="0.19" stop-color="#1D8800"/>
<stop offset="0.46" stop-color="#319100"/>
<stop offset="0.73" stop-color="#3D9700"/>
<stop offset="1" stop-color="#429900"/>
</linearGradient>
<linearGradient id="paint10_linear_16267_35059" x1="27.6784" y1="12.1427" x2="27.6784" y2="4.6122" gradientUnits="userSpaceOnUse">
<stop stop-color="#0B9A00"/>
<stop offset="0.23" stop-color="#23A900"/>
<stop offset="0.49" stop-color="#37B500"/>
<stop offset="0.74" stop-color="#43BD00"/>
<stop offset="1" stop-color="#48C000"/>
</linearGradient>
<linearGradient id="paint11_linear_16267_35059" x1="20.023" y1="28.3649" x2="38.1965" y2="28.3649" gradientUnits="userSpaceOnUse">
<stop stop-color="#B00027"/>
<stop offset="0.04" stop-color="#B00224"/>
<stop offset="0.36" stop-color="#B01410"/>
<stop offset="0.68" stop-color="#B01E04"/>
<stop offset="0.99" stop-color="#B02200"/>
</linearGradient>
<linearGradient id="paint12_linear_16267_35059" x1="30.7393" y1="37.9889" x2="30.7393" y2="19.7525" gradientUnits="userSpaceOnUse">
<stop stop-color="#EA2A27"/>
<stop offset="0.04" stop-color="#EB2C24"/>
<stop offset="0.36" stop-color="#F53910"/>
<stop offset="0.68" stop-color="#FB4204"/>
<stop offset="1" stop-color="#FD4500"/>
</linearGradient>
</defs>
</svg>
