<svg width="48" height="48" viewBox="0 0 48 48" fill="none" xmlns="http://www.w3.org/2000/svg">
<g clip-path="url(#clip0_16267_35026)">
<path opacity="0.8" d="M26.4464 9.36308C25.6598 9.21792 24.8409 9.1377 24.0018 9.1377C23.1628 9.1377 22.3439 9.21792 21.5573 9.36308H12.5859V16.3233C12.5859 19.0088 16.1721 24.6434 24.0018 24.6434C31.8316 24.6434 35.4177 19.0088 35.4177 16.3233V9.36308H26.4464Z" fill="#B1D8D8"/>
<path opacity="0.8" d="M24.0018 24.6436C16.1721 24.6436 12.5859 30.2782 12.5859 32.9637V38.3538C12.5859 38.9154 16.1761 39.9964 24.0018 39.9964C31.8276 39.9964 35.4177 38.9154 35.4177 38.3538V32.9637C35.4177 30.2782 31.8316 24.6436 24.0018 24.6436Z" fill="#B1D8D8"/>
<path d="M34.6353 16.3233C34.6353 17.2554 31.9326 23.6961 24.002 23.6961C16.0714 23.6961 13.3687 17.2554 13.3687 16.3233C13.3687 15.3912 18.1286 14.6387 24.002 14.6387C29.8753 14.6387 34.6353 15.3912 34.6353 16.3233Z" fill="url(#paint0_radial_16267_35026)"/>
<path d="M24.002 18.008C29.8746 18.008 34.6353 17.2537 34.6353 16.3233C34.6353 15.3929 29.8746 14.6387 24.002 14.6387C18.1294 14.6387 13.3687 15.3929 13.3687 16.3233C13.3687 17.2537 18.1294 18.008 24.002 18.008Z" fill="url(#paint1_linear_16267_35026)"/>
<path d="M9 38.6787V41.6202C9 42.9343 15.7164 43.9963 24.002 43.9963C32.2876 43.9963 39.004 42.9305 39.004 41.6202V38.6787H9Z" fill="url(#paint2_linear_16267_35026)"/>
<path d="M24.002 41.0549C32.2874 41.0549 39.004 39.9911 39.004 38.6788C39.004 37.3665 32.2874 36.3027 24.002 36.3027C15.7166 36.3027 9 37.3665 9 38.6788C9 39.9911 15.7166 41.0549 24.002 41.0549Z" fill="url(#paint3_linear_16267_35026)"/>
<path d="M13.3687 37.6813C13.3687 36.7492 16.0714 30.3086 24.002 30.3086C31.9326 30.3086 34.6353 36.7492 34.6353 37.6813C34.6353 38.6134 29.8753 39.366 24.002 39.366C18.1286 39.366 13.3687 38.6134 13.3687 37.6813Z" fill="url(#paint4_radial_16267_35026)"/>
<path d="M10.1899 8.8252V38.3162C10.1899 38.4575 10.557 38.5683 11.0088 38.5683C11.4606 38.5683 11.8277 38.4537 11.8277 38.3162V8.8252H10.1899Z" fill="url(#paint5_linear_16267_35026)"/>
<path d="M36.1763 8.8252V38.3162C36.1763 38.4575 36.5434 38.5683 36.9951 38.5683C37.4469 38.5683 37.814 38.4537 37.814 38.3162V8.8252H36.1803H36.1763Z" fill="url(#paint6_linear_16267_35026)"/>
<path d="M9 6.37598V9.31743C9 10.6315 15.7164 11.6935 24.002 11.6935C32.2876 11.6935 39.004 10.6277 39.004 9.31743V6.37598H9Z" fill="url(#paint7_linear_16267_35026)"/>
<path d="M24.002 8.75217C32.2874 8.75217 39.004 7.68836 39.004 6.37609C39.004 5.06381 32.2874 4 24.002 4C15.7166 4 9 5.06381 9 6.37609C9 7.68836 15.7166 8.75217 24.002 8.75217Z" fill="url(#paint8_linear_16267_35026)"/>
<path d="M29.8957 13.3633C29.8957 13.3633 32.7194 13.2677 33.6271 12.8857C33.6271 12.8857 33.9336 19.7504 27.1729 22.413C27.1729 22.413 29.2906 21.0989 29.8957 13.3633Z" fill="url(#paint9_radial_16267_35026)"/>
<path d="M29.8957 36.9517C29.8957 36.9517 32.4492 36.9517 33.6271 36.4589C33.6271 36.4589 33.9336 29.5942 27.1729 26.9316C27.1729 26.9316 29.6255 29.1855 29.8957 36.9517Z" fill="url(#paint10_radial_16267_35026)"/>
</g>
<defs>
<radialGradient id="paint0_radial_16267_35026" cx="0" cy="0" r="1" gradientUnits="userSpaceOnUse" gradientTransform="translate(24.3045 14.5814) scale(12.0452 11.4067)">
<stop stop-color="#B06A25"/>
<stop offset="0.19" stop-color="#BA772A"/>
<stop offset="0.53" stop-color="#D49B39"/>
<stop offset="1" stop-color="#FFD451"/>
</radialGradient>
<linearGradient id="paint1_linear_16267_35026" x1="20.5006" y1="24.8956" x2="24.1307" y2="14.9831" gradientUnits="userSpaceOnUse">
<stop stop-color="#CCA02F"/>
<stop offset="0.1" stop-color="#D1A93A"/>
<stop offset="0.71" stop-color="#F2DD7A"/>
<stop offset="1" stop-color="#FFF293"/>
</linearGradient>
<linearGradient id="paint2_linear_16267_35026" x1="9" y1="41.3413" x2="39" y2="41.3413" gradientUnits="userSpaceOnUse">
<stop stop-color="#9063DD"/>
<stop offset="0.64" stop-color="#C8D0FF"/>
<stop offset="0.7" stop-color="#C5CBFD"/>
<stop offset="0.77" stop-color="#BEBDF9"/>
<stop offset="0.85" stop-color="#B3A7F2"/>
<stop offset="0.93" stop-color="#A388E8"/>
<stop offset="1" stop-color="#9063DD"/>
</linearGradient>
<linearGradient id="paint3_linear_16267_35026" x1="9" y1="38.6788" x2="39" y2="38.6788" gradientUnits="userSpaceOnUse">
<stop stop-color="#C1ACFF"/>
<stop offset="1" stop-color="#C8D0FF"/>
</linearGradient>
<radialGradient id="paint4_radial_16267_35026" cx="0" cy="0" r="1" gradientUnits="userSpaceOnUse" gradientTransform="translate(22.5901 39.0413) scale(12.4607 11.8002)">
<stop stop-color="#B06A25"/>
<stop offset="0.15" stop-color="#BE7D2D"/>
<stop offset="0.53" stop-color="#E1AC40"/>
<stop offset="0.83" stop-color="#F6C94C"/>
<stop offset="1" stop-color="#FFD451"/>
</radialGradient>
<linearGradient id="paint5_linear_16267_35026" x1="10.1899" y1="23.6967" x2="11.8237" y2="23.6967" gradientUnits="userSpaceOnUse">
<stop stop-color="#9063DD"/>
<stop offset="0.64" stop-color="#C8D0FF"/>
<stop offset="0.7" stop-color="#C5CBFD"/>
<stop offset="0.77" stop-color="#BEBDF9"/>
<stop offset="0.85" stop-color="#B3A7F2"/>
<stop offset="0.93" stop-color="#A388E8"/>
<stop offset="1" stop-color="#9063DD"/>
</linearGradient>
<linearGradient id="paint6_linear_16267_35026" x1="36.1763" y1="23.6967" x2="37.814" y2="23.6967" gradientUnits="userSpaceOnUse">
<stop stop-color="#9063DD"/>
<stop offset="0.64" stop-color="#C8D0FF"/>
<stop offset="0.7" stop-color="#C5CBFD"/>
<stop offset="0.77" stop-color="#BEBDF9"/>
<stop offset="0.85" stop-color="#B3A7F2"/>
<stop offset="0.93" stop-color="#A388E8"/>
<stop offset="1" stop-color="#9063DD"/>
</linearGradient>
<linearGradient id="paint7_linear_16267_35026" x1="9" y1="9.03857" x2="9.40339" y2="9.03857" gradientUnits="userSpaceOnUse">
<stop stop-color="#9063DD"/>
<stop offset="0.64" stop-color="#C8D0FF"/>
<stop offset="0.7" stop-color="#C5CBFD"/>
<stop offset="0.77" stop-color="#BEBDF9"/>
<stop offset="0.85" stop-color="#B3A7F2"/>
<stop offset="0.93" stop-color="#A388E8"/>
<stop offset="1" stop-color="#9063DD"/>
</linearGradient>
<linearGradient id="paint8_linear_16267_35026" x1="9" y1="6.37609" x2="9.40339" y2="6.37609" gradientUnits="userSpaceOnUse">
<stop stop-color="#C1ACFF"/>
<stop offset="1" stop-color="#C8D0FF"/>
</linearGradient>
<radialGradient id="paint9_radial_16267_35026" cx="0" cy="0" r="1" gradientUnits="userSpaceOnUse" gradientTransform="translate(30.4 17.6532) scale(4.22751 4.00344)">
<stop stop-color="#ECFFFF" stop-opacity="0.6"/>
<stop offset="0.17" stop-color="#EBFFFE" stop-opacity="0.62"/>
<stop offset="0.39" stop-color="#EBFFFE" stop-opacity="0.68"/>
<stop offset="0.63" stop-color="#EAFFFD" stop-opacity="0.79"/>
<stop offset="0.89" stop-color="#E9FFFB" stop-opacity="0.93"/>
<stop offset="1" stop-color="#E9FFFB"/>
</radialGradient>
<radialGradient id="paint10_radial_16267_35026" cx="0" cy="0" r="1" gradientUnits="userSpaceOnUse" gradientTransform="translate(30.4 31.9436) scale(4.3808 4.1486)">
<stop stop-color="#ECFFFF" stop-opacity="0.6"/>
<stop offset="0.17" stop-color="#EBFFFE" stop-opacity="0.62"/>
<stop offset="0.39" stop-color="#EBFFFE" stop-opacity="0.68"/>
<stop offset="0.63" stop-color="#EAFFFD" stop-opacity="0.79"/>
<stop offset="0.89" stop-color="#E9FFFB" stop-opacity="0.93"/>
<stop offset="1" stop-color="#E9FFFB"/>
</radialGradient>
<clipPath id="clip0_16267_35026">
<rect width="30" height="40" fill="white" transform="translate(9 4)"/>
</clipPath>
</defs>
</svg>
